<?xml version="1.0" encoding="UTF-8" standalone="no"?>
<svg
   width="48"
   height="48"
   viewBox="0 0 48 48"
   version="1.1"
   id="svg76"
   sodipodi:docname="watermark.svg"
   inkscape:version="1.2.2 (b0a8486541, 2022-12-01)"
   xmlns:inkscape="http://www.inkscape.org/namespaces/inkscape"
   xmlns:sodipodi="http://sodipodi.sourceforge.net/DTD/sodipodi-0.dtd"
   xmlns:xlink="http://www.w3.org/1999/xlink"
   xmlns="http://www.w3.org/2000/svg"
   xmlns:svg="http://www.w3.org/2000/svg">
  <sodipodi:namedview
     id="namedview78"
     pagecolor="#ffffff"
     bordercolor="#666666"
     borderopacity="1.0"
     inkscape:showpageshadow="2"
     inkscape:pageopacity="0.0"
     inkscape:pagecheckerboard="0"
     inkscape:deskcolor="#d1d1d1"
     showgrid="false"
     inkscape:zoom="11.220874"
     inkscape:cx="29.632273"
     inkscape:cy="18.492321"
     inkscape:window-width="1536"
     inkscape:window-height="898"
     inkscape:window-x="0"
     inkscape:window-y="0"
     inkscape:window-maximized="1"
     inkscape:current-layer="svg76" />
  <defs
     id="defs28">
    <linearGradient
       id="a"
       y1="33.02"
       x1="32.988"
       y2="41.591"
       x2="39.562"
       gradientUnits="userSpaceOnUse"
       gradientTransform="matrix(1.01162 0 0 1.0097 384.29 499.57)">
      <stop
         id="stop2" />
      <stop
         offset="1"
         stop-opacity="0"
         id="stop4" />
    </linearGradient>
    <linearGradient
       id="b"
       y1="271.69"
       x1="617.03"
       y2="238.67"
       x2="597.96"
       gradientUnits="userSpaceOnUse"
       gradientTransform="matrix(1.0111144,0,0,1.0101955,-589.78189,-243.05802)">
      <stop
         stop-color="#2f74c8"
         id="stop7"
         offset="0"
         style="stop-color:#c8c8c8;stop-opacity:1;" />
      <stop
         offset="1"
         stop-color="#4699d7"
         id="stop9" />
    </linearGradient>
    <linearGradient
       id="c"
       y1="535.75"
       x1="391.28"
       y2="501.11"
       x2="411.28"
       gradientUnits="userSpaceOnUse"
       gradientTransform="matrix(1.0111144,0,0,1.0101955,-404.35467,-496.33734)">
      <stop
         stop-color="#e3dfd6"
         id="stop12"
         offset="0"
         style="stop-color:#e3e3e3;stop-opacity:1;" />
      <stop
         offset="1"
         stop-color="#f4f1e8"
         id="stop14" />
    </linearGradient>
    <linearGradient
       id="d"
       y1="669.44"
       x1="77.987"
       y2="650.39"
       x2="88.999"
       gradientUnits="userSpaceOnUse"
       gradientTransform="translate(-82.627847,-625.05606)">
      <stop
         stop-color="#d35400"
         id="stop17"
         offset="0"
         style="stop-color:#d3d3d3;stop-opacity:1;" />
      <stop
         offset="1"
         stop-color="#d35400"
         id="stop19" />
    </linearGradient>
    <linearGradient
       id="e"
       y1="548.93"
       x1="427.75"
       y2="529.54"
       gradientUnits="userSpaceOnUse"
       x2="438.95"
       gradientTransform="matrix(0.87609,-0.50484,0.50581,0.87442,-635.88,-222.75)">
      <stop
         stop-color="#f5955f"
         id="stop22" />
      <stop
         offset="1"
         stop-color="#facebe"
         id="stop24" />
    </linearGradient>
    <linearGradient
       xlink:href="#a"
       id="f"
       x1="398.57"
       x2="419.25"
       gradientUnits="userSpaceOnUse"
       gradientTransform="translate(-384.57,-499.8)" />
  </defs>
  <g
     id="g1485"
     style="opacity:0.1"
     transform="matrix(1.4953274,0,0,1.4953274,-0.62630461,-5.3912208)">
    <rect
       width="40.445179"
       x="12.576728"
       y="-3.3150725"
       fill="url(#b)"
       rx="1.6160071"
       height="24.239893"
       stroke-linecap="round"
       transform="matrix(0.8664362,0.49928781,-0.50071221,0.86561382,0,0)"
       id="rect30"
       style="color:#000000;fill:#808080;fill-opacity:1;stroke-width:3;stroke-linejoin:round" />
    <path
       fill="#34495e"
       d="m 1.09,23.29 c -0.239,0.714 0.048,1.515 0.727,1.906 l 32.24,18.58 c 0.776,0.447 1.763,0.183 2.211,-0.592 l 10.521,-18.19 c 0.238,-0.412 0.269,-0.883 0.135,-1.301 -0.034,0.102 -0.079,0.204 -0.135,0.301 l -10.521,18.19 c -0.448,0.775 -1.435,1.039 -2.211,0.592 L 1.817,24.196 C 1.454,23.987 1.209,23.658 1.09,23.29"
       id="path32"
       style="color:#000000;fill:#5e5e5e;fill-opacity:1;stroke-width:3;stroke-linejoin:round" />
    <path
       fill="#31363b"
       d="m 4.264,17.729 -2.186,3.779 35.03,20.223 2.188,-3.777 z"
       id="path34"
       style="color:#000000;fill:#4d4d4d;fill-opacity:1;stroke-width:3;stroke-linejoin:round" />
    <rect
       width="40.445179"
       x="-11.462946"
       y="20.650404"
       fill="url(#c)"
       rx="1.6160071"
       height="24.239893"
       stroke-linecap="round"
       transform="matrix(0.8664362,-0.49928781,0.50071221,0.86561382,0,0)"
       id="rect38"
       style="color:#000000;fill:#eeeeee;fill-opacity:1;stroke-width:3;stroke-linejoin:round" />
    <path
       fill="#d9d3cc"
       d="m 46.92,23.29 c -0.118,0.368 -0.363,0.697 -0.727,0.906 l -32.24,18.58 c -0.776,0.447 -1.763,0.183 -2.211,-0.592 L 1.221,23.994 C 1.165,23.897 1.12,23.795 1.086,23.693 0.952,24.111 0.982,24.582 1.221,24.994 l 10.521,18.19 c 0.448,0.775 1.435,1.039 2.211,0.592 l 32.24,-18.58 c 0.679,-0.391 0.966,-1.193 0.727,-1.906"
       id="path40"
       style="color:#000000;fill:#d9d9d9;fill-opacity:1;stroke-width:3;stroke-linejoin:round" />
    <path
       id="rect46"
       style="fill:#808080;fill-opacity:1"
       d="m 4.7158649,24.694765 -12.1344081,1.42e-4 1.281e-4,16.160111 12.1344081,-1.42e-4 z M 0.09333955,26.07416 c 0.94567565,0.512129 1.58572455,1.511547 1.58602145,2.665745 -6.89e-5,1.6797 -1.35386302,3.031062 -3.0342949,3.031053 -1.6804319,-8e-6 -3.031632,-1.351661 -3.0320638,-3.030494 6.88e-5,-1.6797 1.3521723,-3.032037 3.0326042,-3.032028 0.52513499,2e-6 1.01788046,0.132938 1.44773305,0.365724 z m 2.74799895,8.604566 c 0.5440276,0.322342 0.8614756,0.711142 0.8613045,1.130834 l -0.00172,4.040142 -10.1105979,9.31e-4 3.43e-5,-4.041118 c 4.56e-4,-1.119178 2.254342,-2.019314 5.0551834,-2.018844 l 9.78e-4,-0.0017 c 1.7505259,2.93e-4 3.2881097,0.352509 4.1948226,0.889747 z"
       transform="matrix(0.86644052,-0.4992803,0.5007197,0.86560948,0,0)" />
    <rect
       width="8.088995"
       x="6.7421021"
       y="24.694324"
       height="2.0200012"
       id="rect50"
       transform="matrix(0.86644052,-0.4992803,0.5007197,0.86560948,0,0)"
       style="color:#000000;fill:#808080;fill-opacity:1;stroke-width:3;stroke-linecap:round;stroke-linejoin:round" />
    <rect
       width="2.0219989"
       x="15.842095"
       y="24.694324"
       height="2.0200012"
       id="rect52"
       transform="matrix(0.86644052,-0.4992803,0.5007197,0.86560948,0,0)"
       style="color:#000000;fill:#808080;fill-opacity:1;stroke-width:3;stroke-linecap:round;stroke-linejoin:round" />
    <rect
       width="7.0779958"
       x="6.7421021"
       y="28.734304"
       height="1.0100006"
       id="rect56"
       transform="matrix(0.86644052,-0.4992803,0.5007197,0.86560948,0,0)"
       style="color:#000000;fill:#808080;fill-opacity:1;stroke-width:3;stroke-linecap:round;stroke-linejoin:round" />
    <rect
       width="2.0219989"
       x="14.832093"
       y="28.734304"
       height="1.0100006"
       id="rect58"
       transform="matrix(0.86644052,-0.4992803,0.5007197,0.86560948,0,0)"
       style="color:#000000;fill:#808080;fill-opacity:1;stroke-width:3;stroke-linecap:round;stroke-linejoin:round" />
    <rect
       width="7.0779958"
       x="17.862091"
       y="28.734304"
       height="1.0100006"
       id="rect60"
       transform="matrix(0.86644052,-0.4992803,0.5007197,0.86560948,0,0)"
       style="color:#000000;fill:#808080;fill-opacity:1;stroke-width:3;stroke-linecap:round;stroke-linejoin:round" />
    <rect
       width="18.200989"
       x="6.7421021"
       y="31.764336"
       height="1.0100006"
       id="rect62"
       transform="matrix(0.86644052,-0.4992803,0.5007197,0.86560948,0,0)"
       style="color:#000000;fill:#808080;fill-opacity:1;stroke-width:3;stroke-linecap:round;stroke-linejoin:round" />
    <rect
       width="4.0449977"
       x="20.892088"
       y="36.814327"
       height="4.0400023"
       id="rect66"
       transform="matrix(0.86644052,-0.4992803,0.5007197,0.86560948,0,0)"
       style="color:#000000;fill:#808080;fill-opacity:1;stroke-width:3;stroke-linecap:round;stroke-linejoin:round" />
    <rect
       width="4.0449977"
       x="15.782098"
       y="36.834347"
       height="4.0400023"
       id="rect68"
       transform="matrix(0.86644052,-0.4992803,0.5007197,0.86560948,0,0)"
       style="color:#000000;fill:#808080;fill-opacity:1;stroke-width:3;stroke-linecap:round;stroke-linejoin:round" />
  </g>
</svg>
